<svg xmlns="http://www.w3.org/2000/svg" width="160" height="26.225" viewBox="0 0 160 26.225">
  <g id="Group_6909" data-name="Group 6909" transform="translate(-457.612 -327.344)">
    <path id="Path_4490" data-name="Path 4490" d="M472.387,344.186a6.776,6.776,0,0,0-2.249-2.133,16.893,16.893,0,0,0-2.84-1.323q-1.271-.485-2.414-1.042a6.5,6.5,0,0,1-1.859-1.3,2.469,2.469,0,0,1-.713-1.761,2.738,2.738,0,0,1,1.073-2.3,4.687,4.687,0,0,1,2.938-.829,9.272,9.272,0,0,1,2.767.451,16.747,16.747,0,0,1,2.676,1.109l1.274-2.639a14.565,14.565,0,0,0-3.1-1.384,13.215,13.215,0,0,0-4.108-.573,8.551,8.551,0,0,0-3.651.878,6.308,6.308,0,0,0-2.493,2.219,6.066,6.066,0,0,0-.9,3.328,5.421,5.421,0,0,0,.6,2.657,5.924,5.924,0,0,0,1.56,1.841,9.98,9.98,0,0,0,2.121,1.256c.774.341,1.53.646,2.267.933a15.624,15.624,0,0,1,2.139.975,5.325,5.325,0,0,1,1.609,1.341,2.937,2.937,0,0,1,.622,1.889,3.175,3.175,0,0,1-.7,2.152,4.093,4.093,0,0,1-1.743,1.189,6.322,6.322,0,0,1-2.152.378,8.715,8.715,0,0,1-3.163-.652,11.249,11.249,0,0,1-2.8-1.536l-1.536,2.706a15.411,15.411,0,0,0,3.5,1.749,12.692,12.692,0,0,0,4.321.731,9.083,9.083,0,0,0,4.194-.9,6.639,6.639,0,0,0,2.688-2.432,6.341,6.341,0,0,0,.945-3.389A6.48,6.48,0,0,0,472.387,344.186Z" transform="translate(0 -1.217)" fill="#242c36"/>
    <path id="Path_4491" data-name="Path 4491" d="M500.849,346.745l-.244,2.042a5.988,5.988,0,0,0-1.841-1.78,5.894,5.894,0,0,0-3.23-.817,6.857,6.857,0,0,0-3.438.9,6.782,6.782,0,0,0-2.542,2.542,7.627,7.627,0,0,0-.963,3.931,7.752,7.752,0,0,0,.914,3.931,6,6,0,0,0,2.475,2.4,7.452,7.452,0,0,0,3.492.817,6.1,6.1,0,0,0,2.133-.36,6.819,6.819,0,0,0,2.755-1.859c.085-.1.165-.2.232-.28v2.17h3.291V346.745Zm-.256,8.021a4.11,4.11,0,0,1-1.487,2.365,4.411,4.411,0,0,1-2.755.865,4.176,4.176,0,0,1-2.182-.6,4.5,4.5,0,0,1-1.615-1.646,4.63,4.63,0,0,1-.6-2.353,4.709,4.709,0,0,1,.585-2.365,4.284,4.284,0,0,1,1.566-1.6,4.22,4.22,0,0,1,2.152-.567,4.518,4.518,0,0,1,2.755.878,4.185,4.185,0,0,1,1.585,2.219Z" transform="translate(-12.097 -7.359)" fill="#242c36"/>
    <path id="Path_4492" data-name="Path 4492" d="M522.132,327.89v25.337h3.3V327.89Z" transform="translate(-25.194 -0.213)" fill="#242c36"/>
    <path id="Path_4493" data-name="Path 4493" d="M543.388,357.588a4.717,4.717,0,0,1-1.694.311,4.2,4.2,0,0,1-3.133-1.274,4.155,4.155,0,0,1-.555-.713l10.666-3.688a7.942,7.942,0,0,0-2.432-4.456,6.652,6.652,0,0,0-4.547-1.579,7.657,7.657,0,0,0-6.6,3.6,6.764,6.764,0,0,0-1.03,3.669,7.574,7.574,0,0,0,.914,3.736,6.426,6.426,0,0,0,2.609,2.572,8.265,8.265,0,0,0,4.041.933,8.181,8.181,0,0,0,2.5-.408,9.611,9.611,0,0,0,2.3-1.091l-1.5-2.45A6.49,6.49,0,0,1,543.388,357.588Zm-6.022-3.627a5.182,5.182,0,0,1-.043-.695,4.54,4.54,0,0,1,1.158-3.212,3.889,3.889,0,0,1,2.987-1.256,3.3,3.3,0,0,1,2.31.768,4.464,4.464,0,0,1,1.17,1.627Z" transform="translate(-29.853 -7.359)" fill="#242c36"/>
    <path id="Path_4494" data-name="Path 4494" d="M571.611,353.632a7.347,7.347,0,0,0-2.493-1.335c-.5-.171-.993-.341-1.481-.506a3.381,3.381,0,0,1-1.195-.652,1.378,1.378,0,0,1-.451-1.091,1.224,1.224,0,0,1,.652-1.091,2.8,2.8,0,0,1,1.53-.408,4.591,4.591,0,0,1,1.451.341,4.07,4.07,0,0,1,1.39.9l1.268-1.987a5.945,5.945,0,0,0-2.121-1.158,8.819,8.819,0,0,0-2.572-.341,5.686,5.686,0,0,0-2.743.6,4.039,4.039,0,0,0-1.646,1.56,4.123,4.123,0,0,0-.536,2.042,3.567,3.567,0,0,0,.9,2.426,5.7,5.7,0,0,0,2.59,1.585c.543.152,1.055.317,1.536.488a4.075,4.075,0,0,1,1.189.652,1.362,1.362,0,0,1,.475,1.109,1.313,1.313,0,0,1-.719,1.256,3.543,3.543,0,0,1-1.664.372,4.253,4.253,0,0,1-1.743-.421,6.392,6.392,0,0,1-1.78-1.237l-1.4,1.889a6.248,6.248,0,0,0,2.316,1.548,7.77,7.77,0,0,0,2.871.536,6.326,6.326,0,0,0,3.017-.634,4.234,4.234,0,0,0,1.774-1.682,4.508,4.508,0,0,0,.591-2.28A3.085,3.085,0,0,0,571.611,353.632Z" transform="translate(-40.779 -7.402)" fill="#242c36"/>
    <path id="Path_4495" data-name="Path 4495" d="M608.4,344.256a7.623,7.623,0,0,0-3.115-2.219l-.055-.018a5.888,5.888,0,0,0,2.273-2.072,5.984,5.984,0,0,0,.884-3.3,5.178,5.178,0,0,0-2.054-4.5,9.591,9.591,0,0,0-5.644-1.469h-6.229v23.643h7.143a11.472,11.472,0,0,0,2.95-.372,7.71,7.71,0,0,0,2.542-1.176,5.871,5.871,0,0,0,1.8-2.072,6.508,6.508,0,0,0,.664-3.066A5.145,5.145,0,0,0,608.4,344.256Zm-10.544-10.289h3a4.74,4.74,0,0,1,2.919.817,3.006,3.006,0,0,1,1.091,2.572,3.848,3.848,0,0,1-.847,2.493,3.263,3.263,0,0,1-2.706,1.061h-3.456ZM604.7,350.3a5.942,5.942,0,0,1-3.261.847h-3.584v-6.942h3.358a8.175,8.175,0,0,1,2.28.323,4.109,4.109,0,0,1,1.828,1.079,2.855,2.855,0,0,1,.713,2.054A2.9,2.9,0,0,1,604.7,350.3Z" transform="translate(-53.438 -1.299)" fill="#242c36"/>
    <path id="Path_4496" data-name="Path 4496" d="M636.063,347.1v6.229a6.638,6.638,0,0,1-.5,2.639,4.538,4.538,0,0,1-1.39,1.841,3.168,3.168,0,0,1-1.987.671,2.344,2.344,0,0,1-1.762-.719,2.834,2.834,0,0,1-.622-1.725V347.1h-3.291v10.106a4.074,4.074,0,0,0,1.274,2.938,4.305,4.305,0,0,0,3.1,1.14,6.086,6.086,0,0,0,3.31-.914,5.136,5.136,0,0,0,1.993-2.152l.207,2.511h2.968V347.1Z" transform="translate(-65.953 -7.715)" fill="#242c36"/>
    <path id="Path_4497" data-name="Path 4497" d="M683.9,357.5l6.723-9.679a2.456,2.456,0,0,1-.969-1.243h-6.881a10.862,10.862,0,0,1-1.78-.055,4.223,4.223,0,0,1-1.579-.579l-.256-.183v.914a2.459,2.459,0,0,0,.75,1.938,2.606,2.606,0,0,0,1.792.67h4.437l-7.57,10.923H691.35V357.5Z" transform="translate(-86.278 -7.191)" fill="#316db5"/>
    <path id="Path_4498" data-name="Path 4498" d="M666.228,346.577h-8.71a10.863,10.863,0,0,1-1.78-.055,4.224,4.224,0,0,1-1.579-.579l-.256-.183v.914a2.459,2.459,0,0,0,.75,1.938,2.606,2.606,0,0,0,1.792.67h4.437l-7.57,10.923H666.1V357.5h-7.454Z" transform="translate(-76.419 -7.191)" fill="#242c36"/>
    <g id="Group_5943" data-name="Group 5943" transform="translate(605.279 327.344)">
      <g id="Group_5942" data-name="Group 5942" transform="translate(0)">
        <g id="Group_5940" data-name="Group 5940">
          <path id="Path_4499" data-name="Path 4499" d="M712.211,339.231a12.121,12.121,0,0,0-11.877-11.882c-.077,0-.149,0-.225,0s-.149,0-.226,0v1.8c.072,0,.149,0,.226,0s.153,0,.225,0a10.317,10.317,0,0,1,10.073,10.078c0,.073,0,.149,0,.225s0,.149,0,.226h1.8c0-.072,0-.149,0-.226S712.216,339.3,712.211,339.231Z" transform="translate(-699.883 -327.344)" fill="#316db5"/>
        </g>
        <g id="Group_5941" data-name="Group 5941" transform="translate(0 4.388)">
          <path id="Path_4500" data-name="Path 4500" d="M707.824,342.042a7.733,7.733,0,0,0-7.49-7.495c-.077,0-.149,0-.225,0s-.149,0-.226,0v1.8c.072,0,.149,0,.226,0s.153,0,.225,0a5.931,5.931,0,0,1,5.686,5.69c0,.073,0,.149,0,.225s0,.154,0,.226h1.8c0-.072,0-.149,0-.226S707.828,342.119,707.824,342.042Z" transform="translate(-699.883 -334.543)" fill="#316db5"/>
        </g>
      </g>
    </g>
    <circle id="Ellipse_39" data-name="Ellipse 39" cx="1.914" cy="1.914" r="1.914" transform="translate(604.19 336.226)" fill="#316db5"/>
  </g>
</svg>
