<svg id="Accounts_Payable" data-name="Accounts Payable" xmlns="http://www.w3.org/2000/svg" width="24" height="24" viewBox="0 0 24 24">
  <g id="_x31_1" transform="translate(2 2)">
    <path id="Path_4672" data-name="Path 4672" d="M27.052,14.385l-1.208-1.208a.6.6,0,0,0-.854.854l.177.177H23v1.208h2.166l-.177.177a.6.6,0,1,0,.854.854l1.208-1.208a.6.6,0,0,0,0-.854Z" transform="translate(-8.313 -4.354)" fill="#3688fc"/>
    <path id="Path_4673" data-name="Path 4673" d="M13.479,2H2.6a.6.6,0,0,0-.6.6V18.312a.6.6,0,0,0,.6.6H13.479a.6.6,0,0,0,.6-.6V2.6A.6.6,0,0,0,13.479,2ZM5.021,10.156a1.81,1.81,0,0,1,.3,3.594v.635a.3.3,0,0,1-.6,0V13.75a1.811,1.811,0,0,1-1.51-1.782.3.3,0,0,1,.6,0A1.208,1.208,0,1,0,5.021,10.76a1.81,1.81,0,0,1-.3-3.594V6.531a.3.3,0,0,1,.6,0v.635a1.811,1.811,0,0,1,1.51,1.782.3.3,0,1,1-.6,0,1.208,1.208,0,1,0-1.208,1.208Zm6.948,5.135H7.739a.3.3,0,0,1,0-.6h4.229a.3.3,0,1,1,0,.6Zm0-1.812H7.739a.3.3,0,0,1,0-.6h4.229a.3.3,0,1,1,0,.6Zm0-1.812H7.739a.3.3,0,0,1,0-.6h4.229a.3.3,0,1,1,0,.6Zm0-1.812H7.739a.3.3,0,1,1,0-.6h4.229a.3.3,0,1,1,0,.6Zm0-1.812H7.739a.3.3,0,1,1,0-.6h4.229a.3.3,0,1,1,0,.6Zm0-1.812H7.739a.3.3,0,0,1,0-.6h4.229a.3.3,0,1,1,0,.6Z" fill="#3688fc"/>
  </g>
  <g id="Group_6885" data-name="Group 6885" transform="translate(18674 6286)">
    <rect id="Rectangle_3124" data-name="Rectangle 3124" width="24" height="24" transform="translate(-18674 -6286)" fill="none"/>
    <rect id="Rectangle_3125" data-name="Rectangle 3125" width="18" height="18" transform="translate(-18671 -6283)" fill="none"/>
  </g>
</svg>
