<svg id="Accounts_Receivable" data-name="Accounts Receivable" xmlns="http://www.w3.org/2000/svg" width="24" height="24" viewBox="0 0 24 24">
  <g id="_x31_2" transform="translate(1.9 1.29)">
    <path id="Path_4670" data-name="Path 4670" d="M27.275,14.221h-2.19l.179-.179a.611.611,0,0,0-.864-.864L23.179,14.4a.61.61,0,0,0,0,.864L24.4,16.485a.611.611,0,0,0,.864-.864l-.179-.179h2.19Z" transform="translate(-8.175 -4.282)" fill="#3688fc"/>
    <path id="Path_4671" data-name="Path 4671" d="M13.6,2H2.611A.611.611,0,0,0,2,2.611V18.489a.611.611,0,0,0,.611.611H13.6a.611.611,0,0,0,.611-.611V2.611A.611.611,0,0,0,13.6,2Zm-8.55,8.244a1.829,1.829,0,0,1,.305,3.633v.642a.305.305,0,1,1-.611,0v-.642a1.831,1.831,0,0,1-1.527-1.8.305.305,0,0,1,.611,0,1.221,1.221,0,1,0,1.221-1.221,1.829,1.829,0,0,1-.305-3.633V6.58a.305.305,0,0,1,.611,0v.642a1.831,1.831,0,0,1,1.527,1.8.305.305,0,0,1-.611,0,1.221,1.221,0,1,0-1.221,1.221Zm7.023,5.191H7.8a.305.305,0,0,1,0-.611h4.275a.305.305,0,0,1,0,.611Zm0-1.832H7.8a.305.305,0,1,1,0-.611h4.275a.305.305,0,1,1,0,.611Zm0-1.832H7.8a.305.305,0,0,1,0-.611h4.275a.305.305,0,1,1,0,.611Zm0-1.832H7.8a.305.305,0,0,1,0-.611h4.275a.305.305,0,1,1,0,.611Zm0-1.832H7.8a.305.305,0,0,1,0-.611h4.275a.305.305,0,0,1,0,.611Zm0-1.832H7.8a.305.305,0,0,1,0-.611h4.275a.305.305,0,1,1,0,.611Z" transform="translate(0 0)" fill="#3688fc"/>
  </g>
  <g id="Group_6889" data-name="Group 6889" transform="translate(18794 6286)">
    <rect id="Rectangle_3114" data-name="Rectangle 3114" width="24" height="24" transform="translate(-18794 -6286)" fill="none"/>
    <rect id="Rectangle_3115" data-name="Rectangle 3115" width="18" height="18" transform="translate(-18791 -6283)" fill="none"/>
  </g>
</svg>
