<svg id="Adminstration" xmlns="http://www.w3.org/2000/svg" width="24" height="24" viewBox="0 0 24 24">
  <g id="Layer_2_00000094579876740253252840000003382329216679810749_" transform="translate(4 4)">
    <g id="user_setting" transform="translate(0 0)">
      <path id="Path_4668" data-name="Path 4668" d="M10.009,246.407l-.164-.094-.331.142a1.393,1.393,0,0,1-1.754-.586l-.567-.982a1.4,1.4,0,0,1,.372-1.813l.287-.214v-.189l-.287-.214a1.4,1.4,0,0,1-.372-1.813l.567-.982a1.386,1.386,0,0,1,.756-.62A6.021,6.021,0,0,0,0,244.512v1.744a.852.852,0,0,0,.853.853h9.285a1.434,1.434,0,0,1-.088-.346Z" transform="translate(0 -230.99)" fill="#3688fc"/>
      <circle id="Ellipse_424" data-name="Ellipse 424" cx="3.303" cy="3.303" r="3.303" transform="translate(2.714 0)" fill="#3688fc"/>
      <path id="Path_4669" data-name="Path 4669" d="M258.736,241.455l-.677-.507a3.2,3.2,0,0,0,0-1.011l.677-.507a.513.513,0,0,0,.135-.667l-.567-.982a.511.511,0,0,0-.645-.214l-.778.331a3.292,3.292,0,0,0-.875-.507l-.1-.841a.511.511,0,0,0-.51-.45h-1.137a.516.516,0,0,0-.51.45l-.1.841a3.243,3.243,0,0,0-.875.507l-.778-.331a.514.514,0,0,0-.645.214l-.567.982a.515.515,0,0,0,.135.667l.677.507a3.2,3.2,0,0,0,0,1.011l-.677.507a.515.515,0,0,0-.135.667l.567.982a.516.516,0,0,0,.645.217l.778-.334a3.291,3.291,0,0,0,.875.507l.1.841a.511.511,0,0,0,.51.45H255.4a.516.516,0,0,0,.51-.45l.1-.841a3.291,3.291,0,0,0,.875-.507l.778.331a.512.512,0,0,0,.645-.217l.567-.982a.511.511,0,0,0-.135-.664Zm-3.91.214a1.228,1.228,0,1,1,1.228-1.228A1.229,1.229,0,0,1,254.826,241.669Z" transform="translate(-242.821 -228.667)" fill="#3688fc"/>
    </g>
  </g>
  <g id="Group_6890" data-name="Group 6890" transform="translate(18823 6286)">
    <rect id="Rectangle_3112" data-name="Rectangle 3112" width="24" height="24" transform="translate(-18823 -6286)" fill="none"/>
    <rect id="Rectangle_3113" data-name="Rectangle 3113" width="18" height="18" transform="translate(-18820 -6283)" fill="none"/>
  </g>
</svg>
