<svg id="back" xmlns="http://www.w3.org/2000/svg" width="24" height="24" viewBox="0 0 24 24">
  <g id="Group_6954" data-name="Group 6954" transform="translate(19515 4992)">
    <rect id="Rectangle_3144" data-name="Rectangle 3144" width="24" height="24" transform="translate(-19515 -4992)" fill="none"/>
    <rect id="Rectangle_3145" data-name="Rectangle 3145" width="18" height="18" transform="translate(-19512 -4989)" fill="none"/>
  </g>
  <path id="arrow_back_FILL0_wght400_GRAD0_opsz48_2_" data-name="arrow_back_FILL0_wght400_GRAD0_opsz48 (2)" d="M166.726-773.775l-6.515-6.515a.715.715,0,0,1-.164-.234.688.688,0,0,1-.047-.258.688.688,0,0,1,.047-.258.714.714,0,0,1,.164-.234l6.538-6.538a.636.636,0,0,1,.469-.187.675.675,0,0,1,.492.211.674.674,0,0,1,.211.492.674.674,0,0,1-.211.492l-5.32,5.32h11.623a.683.683,0,0,1,.5.2.683.683,0,0,1,.2.5.683.683,0,0,1-.2.5.683.683,0,0,1-.5.2H162.39l5.343,5.343a.636.636,0,0,1,.187.469.675.675,0,0,1-.211.492.675.675,0,0,1-.492.211A.675.675,0,0,1,166.726-773.775Z" transform="translate(-155.359 792.782)" fill="#313a46"/>
</svg>
