<svg id="Dashboard" xmlns="http://www.w3.org/2000/svg" width="24" height="24" viewBox="0 0 24 24">
  <g id="Group_6926" data-name="Group 6926" transform="translate(19970 4624)">
    <rect id="Rectangle_3138" data-name="Rectangle 3138" width="24" height="24" transform="translate(-19970 -4624)" fill="none"/>
    <rect id="Rectangle_3139" data-name="Rectangle 3139" width="18" height="18" transform="translate(-19967 -4621)" fill="none"/>
  </g>
  <g id="leaderboard_black_24dp" transform="translate(3 3)">
    <rect id="Rectangle_2574" data-name="Rectangle 2574" width="18.102" height="18.102" fill="none"/>
    <g id="Group_5614" data-name="Group 5614" transform="translate(1.667 2.5)">
      <path id="Path_4385" data-name="Path 4385" d="M5.323,16.1H2.738A.735.735,0,0,1,2,15.374V8.1a.735.735,0,0,1,.738-.728H5.323a.735.735,0,0,1,.738.728v7.279A.735.735,0,0,1,5.323,16.1ZM10.676,3H8.092a.735.735,0,0,0-.738.728V15.374a.735.735,0,0,0,.738.728h2.584a.735.735,0,0,0,.738-.728V3.728A.735.735,0,0,0,10.676,3ZM16.03,8.823H13.445a.735.735,0,0,0-.738.728v5.823a.735.735,0,0,0,.738.728H16.03a.735.735,0,0,0,.738-.728V9.551A.735.735,0,0,0,16.03,8.823Z" transform="translate(-2 -3)" fill="#3688fc"/>
    </g>
  </g>
</svg>
