<svg id="Field_Service" data-name="Field Service" xmlns="http://www.w3.org/2000/svg" width="24" height="24" viewBox="0 0 24 24">
  <g id="miscellaneous_services_black_24dp" transform="translate(3 3)">
    <g id="Group_6866" data-name="Group 6866">
      <rect id="Rectangle_3111" data-name="Rectangle 3111" width="18" height="18" fill="none"/>
    </g>
    <path id="Path_4710" data-name="Path 4710" d="M257.47,240.61l-.57-.427a2.7,2.7,0,0,0,0-.851l.57-.427a.432.432,0,0,0,.114-.562l-.477-.827a.43.43,0,0,0-.544-.18l-.655.278a2.771,2.771,0,0,0-.737-.427l-.085-.708a.43.43,0,0,0-.43-.379H253.7a.435.435,0,0,0-.43.379l-.085.708a2.731,2.731,0,0,0-.737.427l-.655-.278a.433.433,0,0,0-.544.18l-.477.827a.433.433,0,0,0,.114.562l.57.427a2.7,2.7,0,0,0,0,.851l-.57.427a.433.433,0,0,0-.114.562l.477.827a.434.434,0,0,0,.544.183l.655-.281a2.771,2.771,0,0,0,.737.427l.085.708a.43.43,0,0,0,.43.379h.957a.435.435,0,0,0,.43-.379l.085-.708a2.77,2.77,0,0,0,.737-.427l.655.278a.431.431,0,0,0,.544-.183l.477-.827a.431.431,0,0,0-.114-.559Zm-3.293.18a1.034,1.034,0,1,1,1.034-1.034A1.035,1.035,0,0,1,254.177,240.79Z" transform="translate(-241.309 -226.334)" fill="#3688fc"/>
    <path id="Path_4711" data-name="Path 4711" d="M260.621,242.714l-.836-.626a3.954,3.954,0,0,0,0-1.248l.836-.626a.634.634,0,0,0,.167-.824l-.7-1.213a.631.631,0,0,0-.8-.264l-.96.408a4.065,4.065,0,0,0-1.081-.626l-.124-1.038a.631.631,0,0,0-.63-.556h-1.4a.637.637,0,0,0-.63.556l-.124,1.038a4.005,4.005,0,0,0-1.081.626l-.96-.408a.635.635,0,0,0-.8.264l-.7,1.213a.636.636,0,0,0,.167.824l.836.626a3.952,3.952,0,0,0,0,1.248l-.836.626a.636.636,0,0,0-.167.824l.7,1.213a.637.637,0,0,0,.8.268l.96-.412a4.065,4.065,0,0,0,1.081.626l.124,1.038a.631.631,0,0,0,.63.556h1.4a.637.637,0,0,0,.63-.556l.124-1.038a4.064,4.064,0,0,0,1.081-.626l.96.408a.633.633,0,0,0,.8-.268l.7-1.213a.631.631,0,0,0-.167-.82Zm-4.829.264a1.516,1.516,0,1,1,1.516-1.516A1.518,1.518,0,0,1,255.792,242.978Z" transform="translate(-248.925 -234.79)" fill="#3688fc"/>
  </g>
  <g id="Group_6881" data-name="Group 6881" transform="translate(18556 6286)">
    <rect id="Rectangle_3128" data-name="Rectangle 3128" width="24" height="24" transform="translate(-18556 -6286)" fill="none"/>
    <rect id="Rectangle_3129" data-name="Rectangle 3129" width="18" height="18" transform="translate(-18553 -6283)" fill="none"/>
  </g>
</svg>
