<svg id="Fixed_Assets" data-name="Fixed Assets" xmlns="http://www.w3.org/2000/svg" width="24" height="24" viewBox="0 0 24 24">
  <g id="Group_6882" data-name="Group 6882" transform="translate(18585 6286)">
    <rect id="Rectangle_3130" data-name="Rectangle 3130" width="24" height="24" transform="translate(-18585 -6286)" fill="none"/>
    <rect id="Rectangle_3131" data-name="Rectangle 3131" width="18" height="18" transform="translate(-18582 -6283)" fill="none"/>
  </g>
  <g id="XMLID_259_" transform="translate(3 3)">
    <g id="XMLID_276_" transform="translate(2.569 1.809)">
      <g id="XMLID_292_">
        <path id="XMLID_329_" d="M15.712,9.571H8.822a.246.246,0,0,1-.245-.245V8.149A.246.246,0,0,1,8.822,7.9h5.811a3.793,3.793,0,0,1-.147-.76H8.822A.246.246,0,0,1,8.577,6.9V5.722a.246.246,0,0,1,.245-.245h5.884A3.6,3.6,0,0,1,15.417,4.3H8.356a.942.942,0,0,0-.956.956V17.049h3.678V13.126a.246.246,0,0,1,.245-.245h2.771a.246.246,0,0,1,.245.245v3.923h3.678V10.528a3.773,3.773,0,0,1-2.3-.956Zm1.079,2.158a.246.246,0,0,1-.245.245H8.822a.246.246,0,0,1-.245-.245V10.552a.246.246,0,0,1,.245-.245h7.723a.246.246,0,0,1,.245.245Z" transform="translate(-7.4 -4.3)" fill="#3688fc"/>
      </g>
    </g>
    <path id="XMLID_289_" d="M14.779,59.156v.466a.246.246,0,0,1-.245.245H1.245A.246.246,0,0,1,1,59.622v-.466a.957.957,0,0,1,.956-.956H13.847A.937.937,0,0,1,14.779,59.156Z" transform="translate(0 -43.176)" fill="#3688fc"/>
    <path id="XMLID_283_" d="M41.485,1a3.285,3.285,0,1,0,3.285,3.285A3.286,3.286,0,0,0,41.485,1Zm0,3.04a.931.931,0,0,1,.932.932.919.919,0,0,1-.687.883v.221a.246.246,0,0,1-.245.245.232.232,0,0,1-.245-.245V5.855a.919.919,0,0,1-.686-.883.246.246,0,0,1,.245-.245.232.232,0,0,1,.245.245.441.441,0,1,0,.441-.441.923.923,0,0,1-.221-1.814V2.5a.246.246,0,0,1,.245-.245.232.232,0,0,1,.245.245v.221a.919.919,0,0,1,.686.883.246.246,0,0,1-.245.245.232.232,0,0,1-.245-.245.441.441,0,1,0-.883,0,.405.405,0,0,0,.417.441Z" transform="translate(-28.079)" fill="#3688fc"/>
  </g>
</svg>
