<svg id="Point_of_Sale" data-name="Point of Sale" xmlns="http://www.w3.org/2000/svg" width="24" height="24" viewBox="0 0 24 24">
  <g id="point_of_sale_black_24dp" transform="translate(2 2)">
    <rect id="Rectangle_3109" data-name="Rectangle 3109" width="20" height="20" fill="none"/>
    <path id="Path_4581" data-name="Path 4581" d="M14.5,2H6.167A1.672,1.672,0,0,0,4.5,3.667V5.333A1.672,1.672,0,0,0,6.167,7H14.5a1.672,1.672,0,0,0,1.667-1.667V3.667A1.672,1.672,0,0,0,14.5,2Zm0,3.333H6.167V3.667H14.5ZM17,18.667H3.667A1.672,1.672,0,0,1,2,17v-.833H18.667V17A1.672,1.672,0,0,1,17,18.667ZM15.775,8.825a1.674,1.674,0,0,0-1.525-.992H6.417a1.674,1.674,0,0,0-1.525.992L2,15.333H18.667ZM8.25,13.667H7.417a.417.417,0,1,1,0-.833H8.25a.417.417,0,1,1,0,.833ZM8.25,12H7.417a.417.417,0,1,1,0-.833H8.25a.417.417,0,0,1,0,.833Zm0-1.667H7.417a.417.417,0,0,1,0-.833H8.25a.417.417,0,0,1,0,.833Zm2.5,3.333H9.917a.417.417,0,1,1,0-.833h.833a.417.417,0,1,1,0,.833Zm0-1.667H9.917a.417.417,0,1,1,0-.833h.833a.417.417,0,1,1,0,.833Zm0-1.667H9.917a.417.417,0,0,1,0-.833h.833a.417.417,0,0,1,0,.833Zm2.5,3.333h-.833a.417.417,0,1,1,0-.833h.833a.417.417,0,1,1,0,.833Zm0-1.667h-.833a.417.417,0,1,1,0-.833h.833a.417.417,0,1,1,0,.833Zm0-1.667h-.833a.417.417,0,1,1,0-.833h.833a.417.417,0,0,1,0,.833Z" transform="translate(-0.333 -0.333)" fill="#3688fc"/>
  </g>
  <g id="Group_6884" data-name="Group 6884" transform="translate(18643 6286)">
    <rect id="Rectangle_3121" data-name="Rectangle 3121" width="24" height="24" transform="translate(-18643 -6286)" fill="none"/>
    <rect id="Rectangle_3122" data-name="Rectangle 3122" width="18" height="18" transform="translate(-18640 -6283)" fill="none"/>
  </g>
</svg>
