<svg id="Recent" xmlns="http://www.w3.org/2000/svg" width="24" height="24" viewBox="0 0 24 24">
  <g id="Group_6921" data-name="Group 6921" transform="translate(19950 4738)">
    <rect id="Rectangle_3136" data-name="Rectangle 3136" width="24" height="24" transform="translate(-19950 -4738)" fill="none"/>
    <rect id="Rectangle_3137" data-name="Rectangle 3137" width="18" height="18" transform="translate(-19947 -4735)" fill="none"/>
  </g>
  <g id="Group_7016" data-name="Group 7016" transform="translate(4.033 4.034)">
    <g id="Group_5616" data-name="Group 5616">
      <path id="Path_4393" data-name="Path 4393" d="M9.966,2a7.966,7.966,0,1,0,7.966,7.966A7.99,7.99,0,0,0,9.966,2Zm2.828,10.993-3.25-2a.785.785,0,0,1-.382-.677V6.581a.614.614,0,0,1,.605-.6.6.6,0,0,1,.6.6v3.545l3.059,1.84a.6.6,0,1,1-.629,1.028Z" transform="translate(-2 -2)" fill="#3688fc"/>
    </g>
  </g>
</svg>
