<svg id="Sales_Commissions" data-name="Sales Commissions" xmlns="http://www.w3.org/2000/svg" width="24" height="24" viewBox="0 0 24 24">
  <g id="Group_6883" data-name="Group 6883" transform="translate(18614 6286)">
    <rect id="Rectangle_3120" data-name="Rectangle 3120" width="24" height="24" transform="translate(-18614 -6286)" fill="none"/>
    <rect id="Rectangle_3123" data-name="Rectangle 3123" width="18" height="18" transform="translate(-18611 -6283)" fill="none"/>
  </g>
  <g id="commission" transform="translate(3 -23.02)">
    <path id="Path_4689" data-name="Path 4689" d="M.514,303.188H1.542a.514.514,0,0,0,.514-.514v-5.653H.514a.514.514,0,0,0-.514.514v5.139A.514.514,0,0,0,.514,303.188Z" transform="translate(0 -260.751)" fill="#3688fc"/>
    <path id="Path_4690" data-name="Path 4690" d="M94.279,268.858c.01,0,3.56,1.151,3.56,1.151a1.027,1.027,0,0,0,.637-1.953l-4.834-1.583a4.561,4.561,0,0,0-3.642.343v5.753l4.033.914a10.108,10.108,0,0,0,2.162.253h.113a9.532,9.532,0,0,0,4.841-1.394l2.868-2a1.026,1.026,0,1,0-1.172-1.686l-2.755,1.932a3.591,3.591,0,0,1-2.94.3l-3.169-1.048a.511.511,0,0,1,.3-.976Z" transform="translate(-86.916 -231.025)" fill="#3688fc"/>
    <path id="Path_4691" data-name="Path 4691" d="M276.111,27.02a4.111,4.111,0,1,0,4.111,4.111A4.111,4.111,0,0,0,276.111,27.02Zm-1.285,2.056a.514.514,0,1,1-.514.514A.514.514,0,0,1,274.827,29.076ZM275.221,33a.514.514,0,1,1-.79-.658L277,29.26a.514.514,0,1,1,.79.658Zm2.175.185a.514.514,0,1,1,.514-.514A.514.514,0,0,1,277.4,33.187Z" transform="translate(-262.681)" fill="#3688fc"/>
  </g>
</svg>
