<svg id="supervisor_account_black_24dp" xmlns="http://www.w3.org/2000/svg" width="24" height="24" viewBox="0 0 24 24">
  <path id="Path_4389" data-name="Path 4389" d="M0,0H24V24H0Z" fill="none"/>
  <path id="Path_4390" data-name="Path 4390" d="M16.5,12A2.5,2.5,0,1,0,14,9.5,2.492,2.492,0,0,0,16.5,12ZM9,11A3,3,0,1,0,6,8,2.987,2.987,0,0,0,9,11Zm7.5,3c-1.83,0-5.5.92-5.5,2.75V18a1,1,0,0,0,1,1h9a1,1,0,0,0,1-1V16.75C22,14.92,18.33,14,16.5,14ZM9,13c-2.33,0-7,1.17-7,3.5V18a1,1,0,0,0,1,1H9V16.75a3.941,3.941,0,0,1,2.37-3.47A12.283,12.283,0,0,0,9,13Z" fill="#3688fc"/>
</svg>
